<svg width="51" height="35" viewBox="0 0 51 35" fill="none" xmlns="http://www.w3.org/2000/svg">
<path d="M28.8223 18.5176C28.8223 12.3652 30.2057 7.82422 32.9727 4.89453C35.7721 1.96484 39.7435 0.5 44.8867 0.5V6.4082C43.3893 6.4082 42.0547 6.55469 40.8828 6.84766C39.7435 7.14062 38.7669 7.67773 37.9531 8.45898C37.1719 9.24023 36.5697 10.2982 36.1465 11.6328C35.7233 12.9674 35.4792 14.6602 35.4141 16.7109H44.6914V29.4062H28.8223V18.5176ZM0.0136719 18.5176C0.0136719 12.3652 1.39714 7.82422 4.16406 4.89453C6.96354 1.96484 10.9349 0.5 16.0781 0.5V6.4082C14.5807 6.4082 13.2461 6.55469 12.0742 6.84766C10.9349 7.14062 9.95833 7.67773 9.14453 8.45898C8.36328 9.24023 7.76107 10.2982 7.33789 11.6328C6.91471 12.9674 6.67057 14.6602 6.60547 16.7109H15.8828V29.4062H0.0136719V18.5176ZM39.3691 13.3906C39.5319 12.1862 40.0039 11.3073 40.7852 10.7539C41.599 10.168 42.9661 9.875 44.8867 9.875H48.207V3.23438H50.1602V11.7305H44.6914C43.9427 11.7305 43.2917 11.763 42.7383 11.8281C42.2174 11.8932 41.7617 12.0072 41.3711 12.1699C40.9805 12.3001 40.6224 12.4629 40.2969 12.6582C40.0039 12.8535 39.6947 13.0977 39.3691 13.3906ZM10.5605 13.3906C10.7233 12.1862 11.1953 11.3073 11.9766 10.7539C12.7904 10.168 14.1576 9.875 16.0781 9.875H19.3984V3.23438H21.3516V11.7305H15.8828C15.1341 11.7305 14.4831 11.763 13.9297 11.8281C13.4089 11.8932 12.9531 12.0072 12.5625 12.1699C12.1719 12.3001 11.8138 12.4629 11.4883 12.6582C11.1953 12.8535 10.8861 13.0977 10.5605 13.3906ZM31.752 32.8242H48.207V18.5176H50.1602V34.6797H31.752V32.8242ZM2.94336 32.8242H19.3984V18.5176H21.3516V34.6797H2.94336V32.8242Z" fill="black"/>
</svg>
