<svg width="146" height="151" viewBox="0 0 146 151" fill="none" xmlns="http://www.w3.org/2000/svg">
<path d="M27.4831 35.5862H50.1383L43.0003 47.069L4.51758 47.6897L27.4831 35.5862Z" fill="white" stroke="black" stroke-width="4"/>
<path d="M43.9312 48.3103H6.0691L24.3794 81.5172L4.20703 113.483L42.6898 113.793L62.2415 147L81.7932 113.483H119.345L100.104 81.5172L119.345 48.3103H81.7932L62.5519 16.0345L43.9312 48.3103Z" fill="#2FD9FF" stroke="black" stroke-width="4"/>
<path d="M100.414 80.8965L120.586 114.103L142 101.69L123.069 70.0345L142 35.2759H104.138L86.138 3L62.5518 14.4828L82.7242 48.3103H118.724L100.414 80.8965Z" fill="white" stroke="black" stroke-width="4"/>
<path d="M141.38 35.8965L119.656 48L101.345 80.5862L123.069 70.0345L141.38 35.8965Z" stroke="black" stroke-width="4" stroke-linejoin="round"/>
<path d="M141.69 102.31L123.379 70.0345L100.104 80.2759L119.966 113.793L141.69 102.31Z" stroke="black" stroke-width="4" stroke-linejoin="round"/>
<path d="M85.5175 134.897L62.8623 146.69L82.1037 114.103H97.3106L85.5175 134.897Z" fill="white" stroke="black" stroke-width="4" stroke-linejoin="round"/>
</svg>
