<svg width="169" height="149" viewBox="0 0 169 149" fill="none" xmlns="http://www.w3.org/2000/svg">
<path d="M40.1909 19.6833L45.9031 16.8272C42.8566 12.2575 34.593 3.91781 25.9106 7.11659C17.2282 10.3154 19.2465 23.6817 21.3409 29.9651L28.1955 25.3954C26.8627 21.9681 25.3394 14.6566 29.9091 12.8287C34.4788 11.0008 38.6677 16.6368 40.1909 19.6833Z" fill="white" stroke="black" stroke-width="4"/>
<path d="M25.3394 7.1166C34.4788 5.28872 42.8565 12.8287 45.903 16.8272C46.6646 16.256 48.9875 14.6566 52.1863 12.8287C45.3318 1.86144 36.002 1.78528 32.1939 3.11811L25.3394 7.1166Z" fill="#EFE164" stroke="black" stroke-width="3"/>
<path d="M55.6136 52.2423L115.591 131.641L104.167 145.921C97.6931 138.876 82.0038 121.587 71.0366 108.792C61.4402 139.866 32.3844 117.932 19.0561 103.08C8.20302 88.7999 -6.07731 62.5242 7.6318 39.6757C20.7697 21.3969 46.2838 40.8181 55.6136 52.2423Z" fill="white" stroke="black" stroke-width="4"/>
<path d="M167 102.509L115.591 132.212L104.738 145.921L156.147 116.789L167 102.509Z" fill="#EFBA64" stroke="black"/>
<path d="M65.8954 4.83175L14.4863 33.9636C35.05 27.109 58.0889 53.1944 67.0378 67.0939L115.591 131.641L165.858 101.938C157.289 90.704 137.64 64.5805 127.586 49.9575C115.02 31.6787 100.739 15.6848 90.4576 6.54539C82.2321 -0.76613 70.6555 2.3565 65.8954 4.83175Z" fill="#EFE164" stroke="black" stroke-width="4"/>
<path d="M34.479 22.5393L28.7669 25.3954C28.1956 24.4434 27.0532 21.6254 27.0532 17.9696C27.0532 13.3999 28.7669 12.8287 34.479 12.8287C31.2802 15.5705 33.1462 20.4449 34.479 22.5393Z" fill="#EFE164" stroke="black" stroke-width="2"/>
<path d="M109.879 40.8181L75.0347 60.2393L87.0301 76.2333L120.16 55.6696L109.879 40.8181Z" fill="#EFBA64" stroke="black" stroke-width="4"/>
</svg>
