<svg width="48" height="40" viewBox="0 0 48 40" fill="none" xmlns="http://www.w3.org/2000/svg">
<path d="M10.0836 11.004C12.7704 10.7607 16.6708 7.54772 18.6193 5.71922L19.804 4.60754C32.001 -6.83798 51.8321 4.74488 47.3537 20.6986L45.7544 27.7379C43.3543 36.2879 34.0005 40.086 25.4337 37.2227L8.70474 31.6314C-3.48078 27.5587 -2.73697 12.165 10.0836 11.004Z" fill="#17FFE8"/>
<path d="M7.35984 21.0432C6.39574 11.1745 14.3165 2.63708 24.4363 2.63708H29.5602C39.1198 2.63708 46.4193 11.002 44.9324 20.2529L44.6952 21.7288C44.1322 25.2312 42.0208 28.312 38.9248 30.1485C37.5055 30.9904 36.275 32.1053 35.3077 33.426L34.9861 33.865C26.921 44.8763 9.23147 40.2016 7.9135 26.7106L7.35984 21.0432Z" fill="#F53C95"/>
<path d="M4.92285 38.0736L6.17985 31.1092H9.43568L12.7121 12.9006H9.45628L10.7133 5.93616H28.0846C36.286 5.93616 40.3867 8.41241 40.3867 13.3649C40.3867 15.2759 39.844 16.9582 38.7587 18.4116C37.6872 19.8651 36.2241 20.9552 34.3696 21.6819C35.6609 22.2202 36.65 23.0008 37.3369 24.0236C38.0375 25.0329 38.3878 26.2509 38.3878 27.6774C38.3878 29.7634 37.8108 31.5869 36.6569 33.148C35.5167 34.7091 33.8887 35.9204 31.7731 36.7817C29.6575 37.643 27.1573 38.0736 24.2724 38.0736H4.92285ZM25.8591 12.6988H23.3039L22.1911 18.8759H25.0348C26.3948 18.8759 27.4595 18.5597 28.2288 17.9271C28.9981 17.2946 29.3828 16.4266 29.3828 15.323C29.3828 13.5735 28.2082 12.6988 25.8591 12.6988ZM19.945 31.311H23.2214C24.6502 31.311 25.7629 30.9611 26.5597 30.2613C27.3565 29.5615 27.7549 28.5791 27.7549 27.314C27.7549 25.4299 26.5597 24.4879 24.1693 24.4879H21.1814L19.945 31.311Z" fill="white"/>
</svg>
