<svg width="261" height="67" viewBox="0 0 261 67" fill="none" xmlns="http://www.w3.org/2000/svg">
<path d="M61.875 40V35.2832H64.0625V22.9512H61.875V18.2344H73.6738C76.5905 18.2344 78.7917 18.7357 80.2773 19.7383C81.7721 20.7409 82.5195 22.2357 82.5195 24.2227C82.5195 25.2708 82.2598 26.2005 81.7402 27.0117C81.2298 27.8229 80.487 28.4427 79.5117 28.8711C80.5599 29.2904 81.3848 29.9238 81.9863 30.7715C82.5879 31.61 82.8887 32.6172 82.8887 33.793C82.8887 35.7891 82.1595 37.3249 80.7012 38.4004C79.2428 39.4668 77.1556 40 74.4395 40H61.875ZM72.8398 22.8145H71.0078V26.998H72.8398C74.5352 26.998 75.3828 26.3008 75.3828 24.9062C75.3828 23.5117 74.5352 22.8145 72.8398 22.8145ZM71.0078 35.4199H73.127C74.877 35.4199 75.752 34.6497 75.752 33.1094C75.752 31.569 74.877 30.7988 73.127 30.7988H71.0078V35.4199ZM86.2848 40V35.8984H88.2672V29.623H86.2848V25.8906L94.693 25.084V27.8867C95.2307 26.8932 95.9736 26.1686 96.9215 25.7129C97.8694 25.2572 98.7763 25.0293 99.6422 25.0293V30.9082C98.8219 30.6257 98.0699 30.4844 97.3863 30.4844C96.9306 30.4844 96.4521 30.5664 95.9508 30.7305C95.4495 30.8854 95.0758 31.0996 94.8297 31.373V35.8984H97.9742V40H86.2848ZM107.071 40.2461C106.133 40.2461 105.294 40.0592 104.556 39.6855C103.827 39.3027 103.252 38.7786 102.833 38.1133C102.423 37.4479 102.218 36.6823 102.218 35.8164C102.218 34.4674 102.737 33.3919 103.777 32.5898C104.816 31.7878 106.201 31.3867 107.933 31.3867C108.534 31.3867 109.109 31.4232 109.655 31.4961C110.202 31.569 110.758 31.6921 111.323 31.8652V31.5645C111.323 30.735 111.068 30.1335 110.558 29.7598C110.057 29.3861 109.25 29.1992 108.138 29.1992C107.336 29.1992 106.525 29.304 105.704 29.5137C104.884 29.7233 104.137 30.015 103.462 30.3887L103.093 30.2246V26.2324C104.05 25.8587 105.135 25.5762 106.347 25.3848C107.568 25.1934 108.794 25.0977 110.025 25.0977C112.75 25.0977 114.741 25.5534 115.999 26.4648C117.257 27.3763 117.886 28.8392 117.886 30.8535V35.8984H119.663V40H112.198L111.529 37.8535C111.1 38.6009 110.489 39.1888 109.696 39.6172C108.913 40.0365 108.038 40.2461 107.071 40.2461ZM109.929 36.7461C110.175 36.7461 110.43 36.7051 110.695 36.623C110.968 36.5319 111.178 36.4134 111.323 36.2676V33.9844C111.096 33.8841 110.863 33.8158 110.626 33.7793C110.398 33.7428 110.184 33.7246 109.984 33.7246C109.519 33.7246 109.127 33.8613 108.808 34.1348C108.498 34.4082 108.343 34.7728 108.343 35.2285C108.343 35.6934 108.489 36.0625 108.78 36.3359C109.072 36.6094 109.455 36.7461 109.929 36.7461ZM122.882 40V35.8984H124.864V29.623H122.882V25.8906L131.29 25.084V26.9434C131.855 26.3509 132.561 25.8952 133.409 25.5762C134.257 25.248 135.168 25.084 136.143 25.084C137.793 25.084 139.001 25.5534 139.766 26.4922C140.541 27.4219 140.929 28.8255 140.929 30.7031V35.8984H142.843V40H134.366V30.7031C134.366 30.1745 134.252 29.7917 134.024 29.5547C133.796 29.3086 133.496 29.1855 133.122 29.1855C132.812 29.1855 132.502 29.2767 132.192 29.459C131.891 29.6413 131.636 29.8919 131.427 30.2109V35.8984H132.657V40H122.882ZM152.063 40.2461C150.741 40.2461 149.602 39.9316 148.645 39.3027C147.688 38.6738 146.954 37.7897 146.444 36.6504C145.933 35.502 145.678 34.1667 145.678 32.6445C145.678 31.1133 145.929 29.7826 146.43 28.6523C146.931 27.5221 147.633 26.6471 148.536 26.0273C149.447 25.4076 150.509 25.0977 151.721 25.0977C153.289 25.0977 154.774 25.6673 156.178 26.8066V23.293H153.786V19.5605L162.741 18.6719V35.8984H164.655V40H156.315V38.4688C155.75 39.0065 155.093 39.4395 154.346 39.7676C153.599 40.0866 152.838 40.2461 152.063 40.2461ZM154.182 36.1582C154.528 36.1582 154.884 36.1035 155.248 35.9941C155.622 35.8848 155.932 35.7435 156.178 35.5703V29.8145C155.932 29.6322 155.622 29.4818 155.248 29.3633C154.884 29.2448 154.528 29.1855 154.182 29.1855C153.544 29.1855 153.043 29.4909 152.678 30.1016C152.323 30.7122 152.145 31.5645 152.145 32.6582C152.145 33.752 152.323 34.6087 152.678 35.2285C153.043 35.8483 153.544 36.1582 154.182 36.1582ZM223.315 40.3691C222.158 40.3691 221.228 40.0547 220.526 39.4258C219.824 38.7969 219.473 37.9492 219.473 36.8828C219.473 35.8255 219.824 34.9915 220.526 34.3809C221.228 33.7702 222.158 33.4648 223.315 33.4648C224.482 33.4648 225.412 33.7702 226.104 34.3809C226.806 34.9915 227.157 35.8255 227.157 36.8828C227.157 37.9492 226.806 38.7969 226.104 39.4258C225.402 40.0547 224.473 40.3691 223.315 40.3691ZM229.856 40V35.8984H231.975V29.623H229.856V25.8906L238.538 25.084V35.8984H240.657V40H229.856ZM235.256 24.168C234.062 24.168 233.105 23.8809 232.385 23.3066C231.674 22.7324 231.319 21.9714 231.319 21.0234C231.319 20.0755 231.674 19.3281 232.385 18.7812C233.096 18.2253 234.058 17.9473 235.27 17.9473C236.51 17.9473 237.471 18.2161 238.155 18.7539C238.847 19.2917 239.194 20.0482 239.194 21.0234C239.194 21.9896 238.838 22.7552 238.127 23.3203C237.426 23.8854 236.468 24.168 235.256 24.168ZM251.545 40.2461C249.831 40.2461 248.35 39.9408 247.102 39.3301C245.862 38.7194 244.905 37.849 244.23 36.7188C243.565 35.5885 243.232 34.2441 243.232 32.6855C243.232 31.1178 243.565 29.7689 244.23 28.6387C244.905 27.5085 245.862 26.638 247.102 26.0273C248.35 25.4076 249.831 25.0977 251.545 25.0977C253.258 25.0977 254.735 25.4076 255.975 26.0273C257.223 26.638 258.18 27.5085 258.846 28.6387C259.52 29.7689 259.857 31.1178 259.857 32.6855C259.857 34.2441 259.52 35.5885 258.846 36.7188C258.18 37.849 257.223 38.7194 255.975 39.3301C254.735 39.9408 253.258 40.2461 251.545 40.2461ZM251.545 36.2676C252.775 36.2676 253.391 35.069 253.391 32.6719C253.391 30.2747 252.775 29.0762 251.545 29.0762C250.314 29.0762 249.699 30.2747 249.699 32.6719C249.699 35.069 250.314 36.2676 251.545 36.2676Z" fill="white"/>
<path d="M167.6 40V35.8984H169.719V29.623H167.6V25.8906L176.281 25.084V35.8984H178.4V40H167.6ZM173 24.168C171.806 24.168 170.849 23.8809 170.129 23.3066C169.418 22.7324 169.062 21.9714 169.062 21.0234C169.062 20.0755 169.418 19.3281 170.129 18.7812C170.84 18.2253 171.801 17.9473 173.014 17.9473C174.253 17.9473 175.215 18.2161 175.898 18.7539C176.591 19.2917 176.938 20.0482 176.938 21.0234C176.938 21.9896 176.582 22.7552 175.871 23.3203C175.169 23.8854 174.212 24.168 173 24.168ZM192.884 36.2402C194.662 36.2402 196.002 36.6003 196.904 37.3203C197.815 38.0404 198.271 39.0658 198.271 40.3965C198.271 41.554 197.875 42.5293 197.082 43.3223C196.298 44.1152 195.199 44.7122 193.787 45.1133C192.374 45.5143 190.724 45.7148 188.838 45.7148C186.969 45.7148 185.447 45.5462 184.271 45.209C183.104 44.8809 182.248 44.4388 181.701 43.8828C181.163 43.3359 180.894 42.7389 180.894 42.0918C180.894 41.5996 181.076 41.153 181.441 40.752C181.815 40.3509 182.289 40.0592 182.863 39.877C182.207 39.3483 181.879 38.6556 181.879 37.7988C181.879 37.0423 182.147 36.4089 182.685 35.8984C183.232 35.3789 184.007 34.9961 185.009 34.75C183.788 34.3945 182.772 33.8385 181.961 33.082C181.158 32.3255 180.757 31.3639 180.757 30.1973C180.757 28.666 181.464 27.4355 182.877 26.5059C184.289 25.5671 186.354 25.0977 189.07 25.0977C190.501 25.0977 191.782 25.2799 192.912 25.6445L198.599 25.084V29.3223H196.877C196.94 29.6048 196.972 29.8965 196.972 30.1973C196.972 31.7285 196.243 32.959 194.785 33.8887C193.326 34.8092 191.248 35.2695 188.55 35.2695C187.894 35.2695 187.566 35.429 187.566 35.748C187.566 36.0762 187.894 36.2402 188.55 36.2402H192.884ZM189.07 27.9961C188.514 27.987 188.045 28.1784 187.662 28.5703C187.279 28.9531 187.088 29.4863 187.088 30.1699C187.088 30.8626 187.274 31.4049 187.648 31.7969C188.031 32.1888 188.505 32.3802 189.07 32.3711C189.635 32.362 190.104 32.166 190.478 31.7832C190.861 31.3913 191.052 30.8535 191.052 30.1699C191.052 29.4954 190.861 28.9668 190.478 28.584C190.104 28.2012 189.635 28.0052 189.07 27.9961ZM185.05 41.3262C185.05 41.873 185.333 42.3014 185.898 42.6113C186.463 42.9303 187.306 43.0898 188.427 43.0898C189.649 43.0898 190.528 42.9486 191.066 42.666C191.604 42.3835 191.873 42.0234 191.873 41.5859C191.873 41.1302 191.545 40.9023 190.888 40.9023H186.691C186.135 40.9023 185.62 40.8659 185.146 40.793C185.082 40.9661 185.05 41.1439 185.05 41.3262ZM208.845 40.2461C207.131 40.2461 205.65 39.9408 204.402 39.3301C203.162 38.7194 202.205 37.849 201.53 36.7188C200.865 35.5885 200.532 34.2441 200.532 32.6855C200.532 31.1178 200.865 29.7689 201.53 28.6387C202.205 27.5085 203.162 26.638 204.402 26.0273C205.65 25.4076 207.131 25.0977 208.845 25.0977C210.558 25.0977 212.035 25.4076 213.275 26.0273C214.523 26.638 215.48 27.5085 216.146 28.6387C216.82 29.7689 217.157 31.1178 217.157 32.6855C217.157 34.2441 216.82 35.5885 216.146 36.7188C215.48 37.849 214.523 38.7194 213.275 39.3301C212.035 39.9408 210.558 40.2461 208.845 40.2461ZM208.845 36.2676C210.075 36.2676 210.691 35.069 210.691 32.6719C210.691 30.2747 210.075 29.0762 208.845 29.0762C207.614 29.0762 206.999 30.2747 206.999 32.6719C206.999 35.069 207.614 36.2676 208.845 36.2676Z" fill="#F53C95"/>
<path d="M10.5001 20.5C13.1741 20.2528 17.0558 16.9888 18.995 15.1312L20.174 14.0018C32.3126 2.37435 52.0487 14.1414 47.5917 30.3487L46.0001 37.5C43.6115 46.1859 34.3025 50.0444 25.7767 47.1356L9.12789 41.4554C-2.99926 37.3179 -2.25902 21.6794 10.5001 20.5Z" fill="#17FFE8"/>
<path d="M7.78963 30.6988C6.83015 20.6732 14.7129 12 24.7843 12H29.8837C39.3975 12 46.662 20.4979 45.1822 29.8959L44.9462 31.3952C44.3859 34.9534 42.2846 38.0832 39.2034 39.9488C37.7909 40.8041 36.5663 41.9367 35.6036 43.2784L35.2836 43.7245C27.2571 54.9108 9.6523 50.1618 8.34065 36.4563L7.78963 30.6988Z" fill="#F53C95"/>
<path d="M5.36426 48L6.61523 40.9248H9.85547L13.1162 22.4268H9.87598L11.127 15.3516H28.415C36.5771 15.3516 40.6582 17.8672 40.6582 22.8984C40.6582 24.8398 40.1182 26.5488 39.0381 28.0254C37.9717 29.502 36.5156 30.6094 34.6699 31.3477C35.9551 31.8945 36.9395 32.6875 37.623 33.7266C38.3203 34.752 38.6689 35.9893 38.6689 37.4385C38.6689 39.5576 38.0947 41.4102 36.9463 42.9961C35.8115 44.582 34.1914 45.8125 32.0859 46.6875C29.9805 47.5625 27.4922 48 24.6211 48H5.36426ZM26.2002 22.2217H23.6572L22.5498 28.4971H25.3799C26.7334 28.4971 27.793 28.1758 28.5586 27.5332C29.3242 26.8906 29.707 26.0088 29.707 24.8877C29.707 23.1104 28.5381 22.2217 26.2002 22.2217ZM20.3145 41.1299H23.5752C24.9971 41.1299 26.1045 40.7744 26.8975 40.0635C27.6904 39.3525 28.0869 38.3545 28.0869 37.0693C28.0869 35.1553 26.8975 34.1982 24.5186 34.1982H21.5449L20.3145 41.1299Z" fill="white"/>
</svg>
