<svg width="221" height="45" viewBox="0 0 221 45" fill="none" xmlns="http://www.w3.org/2000/svg">
<path d="M61.4102 32V27.2832H63.5977V14.9512H61.4102V10.2344H73.209C76.1257 10.2344 78.3268 10.7357 79.8125 11.7383C81.3073 12.7409 82.0547 14.2357 82.0547 16.2227C82.0547 17.2708 81.7949 18.2005 81.2754 19.0117C80.765 19.8229 80.0221 20.4427 79.0469 20.8711C80.0951 21.2904 80.9199 21.9238 81.5215 22.7715C82.123 23.61 82.4238 24.6172 82.4238 25.793C82.4238 27.7891 81.6947 29.3249 80.2363 30.4004C78.778 31.4668 76.6908 32 73.9746 32H61.4102ZM72.375 14.8145H70.543V18.998H72.375C74.0703 18.998 74.918 18.3008 74.918 16.9062C74.918 15.5117 74.0703 14.8145 72.375 14.8145ZM70.543 27.4199H72.6621C74.4121 27.4199 75.2871 26.6497 75.2871 25.1094C75.2871 23.569 74.4121 22.7988 72.6621 22.7988H70.543V27.4199ZM90.5504 32.2461C89.6116 32.2461 88.773 32.0592 88.0348 31.6855C87.3056 31.3027 86.7314 30.7786 86.3121 30.1133C85.902 29.4479 85.6969 28.6823 85.6969 27.8164C85.6969 26.4674 86.2164 25.3919 87.2555 24.5898C88.2945 23.7878 89.6799 23.3867 91.4117 23.3867C92.0133 23.3867 92.5875 23.4232 93.1344 23.4961C93.6812 23.569 94.2372 23.6921 94.8023 23.8652V23.5645C94.8023 22.735 94.5471 22.1335 94.0367 21.7598C93.5354 21.3861 92.7288 21.1992 91.6168 21.1992C90.8147 21.1992 90.0035 21.304 89.1832 21.5137C88.3629 21.7233 87.6155 22.015 86.941 22.3887L86.5719 22.2246V18.2324C87.5289 17.8587 88.6135 17.5762 89.8258 17.3848C91.0471 17.1934 92.273 17.0977 93.5035 17.0977C96.2288 17.0977 98.2203 17.5534 99.4781 18.4648C100.736 19.3763 101.365 20.8392 101.365 22.8535V27.8984H103.142V32H95.6773L95.0074 29.8535C94.579 30.6009 93.9684 31.1888 93.1754 31.6172C92.3915 32.0365 91.5165 32.2461 90.5504 32.2461ZM93.4078 28.7461C93.6539 28.7461 93.9091 28.7051 94.1734 28.623C94.4469 28.5319 94.6565 28.4134 94.8023 28.2676V25.9844C94.5745 25.8841 94.3421 25.8158 94.1051 25.7793C93.8772 25.7428 93.663 25.7246 93.4625 25.7246C92.9977 25.7246 92.6057 25.8613 92.2867 26.1348C91.9768 26.4082 91.8219 26.7728 91.8219 27.2285C91.8219 27.6934 91.9677 28.0625 92.2594 28.3359C92.551 28.6094 92.9339 28.7461 93.4078 28.7461ZM106.361 32V27.8984H108.343V21.623H106.361V17.8906L114.769 17.084V18.9434C115.334 18.3509 116.04 17.8952 116.888 17.5762C117.736 17.248 118.647 17.084 119.622 17.084C121.272 17.084 122.48 17.5534 123.245 18.4922C124.02 19.4219 124.407 20.8255 124.407 22.7031V27.8984H126.321V32H117.845V22.7031C117.845 22.1745 117.731 21.7917 117.503 21.5547C117.275 21.3086 116.974 21.1855 116.601 21.1855C116.291 21.1855 115.981 21.2767 115.671 21.459C115.37 21.6413 115.115 21.8919 114.905 22.2109V27.8984H116.136V32H106.361ZM129.389 32V27.8984H131.372V21.623H129.389V17.8906L137.798 17.084V18.9434C138.363 18.3509 139.069 17.8952 139.917 17.5762C140.764 17.248 141.676 17.084 142.651 17.084C144.301 17.084 145.509 17.5534 146.274 18.4922C147.049 19.4219 147.436 20.8255 147.436 22.7031V27.8984H149.35V32H140.874V22.7031C140.874 22.1745 140.76 21.7917 140.532 21.5547C140.304 21.3086 140.003 21.1855 139.63 21.1855C139.32 21.1855 139.01 21.2767 138.7 21.459C138.399 21.6413 138.144 21.8919 137.934 22.2109V27.8984H139.165V32H129.389ZM160.786 32.2461C158.079 32.2461 155.955 31.5671 154.414 30.209C152.883 28.8418 152.118 26.9505 152.118 24.5352C152.118 23.013 152.45 21.696 153.116 20.584C153.79 19.472 154.729 18.6152 155.932 18.0137C157.135 17.403 158.534 17.0977 160.129 17.0977C161.688 17.0977 163.023 17.3848 164.135 17.959C165.247 18.5241 166.095 19.3171 166.678 20.3379C167.271 21.3496 167.567 22.5208 167.567 23.8516C167.567 24.1615 167.553 24.4622 167.526 24.7539C167.498 25.0365 167.467 25.2962 167.43 25.5332H158.639C158.794 26.4629 159.213 27.1328 159.897 27.543C160.59 27.944 161.433 28.1445 162.426 28.1445C163.265 28.1445 164.062 27.9987 164.819 27.707C165.584 27.4062 166.232 27.0326 166.76 26.5859L167.129 26.75V30.6738C166.692 30.9746 166.127 31.2435 165.434 31.4805C164.741 31.7174 163.989 31.9043 163.178 32.041C162.376 32.1777 161.579 32.2461 160.786 32.2461ZM160.485 20.4609C159.874 20.4609 159.414 20.6979 159.104 21.1719C158.794 21.6458 158.621 22.3066 158.584 23.1543H162.385C162.349 22.3066 162.176 21.6458 161.866 21.1719C161.565 20.6979 161.105 20.4609 160.485 20.4609ZM170.717 32V27.8984H172.699V21.623H170.717V17.8906L179.125 17.084V19.8867C179.663 18.8932 180.406 18.1686 181.354 17.7129C182.301 17.2572 183.208 17.0293 184.074 17.0293V22.9082C183.254 22.6257 182.502 22.4844 181.818 22.4844C181.363 22.4844 180.884 22.5664 180.383 22.7305C179.882 22.8854 179.508 23.0996 179.262 23.373V27.8984H182.406V32H170.717Z" fill="white"/>
<path d="M186.91 32V27.8984H189.029V21.4453H186.773V17.7129L189.029 17.4941V16.4824C189.029 14.6413 189.621 13.2194 190.806 12.2168C192 11.2051 193.709 10.6992 195.933 10.6992C196.562 10.6992 197.141 10.7311 197.67 10.7949C198.198 10.8587 198.722 10.9544 199.242 11.082V14.9922L198.873 15.1562C198.672 15.0924 198.453 15.0332 198.216 14.9785C197.989 14.9147 197.701 14.8828 197.355 14.8828C196.744 14.8828 196.298 15.0378 196.015 15.3477C195.733 15.6484 195.591 16.0723 195.591 16.6191V17.3438H198.9V21.4453H195.591V27.8984H198.9V32H186.91ZM204.634 37.4414V33.3398H208.011L208.503 32.3691L201.995 21.4453H200.696V17.3438H210.581V21.4453H208.941L211.566 26.2031L213.931 21.4453H212.29V17.3438H219.222V21.4453H217.923L212.003 33.3398H213.986V37.4414H204.634Z" fill="#F53C95"/>
<path d="M10.0353 12.5C12.7092 12.2528 16.5909 8.98877 18.5301 7.1312L19.7091 6.00184C31.8477 -5.62566 51.5839 6.14136 47.1268 22.3487L45.5353 29.5C43.1467 38.1859 33.8377 42.0444 25.3119 39.1356L8.66304 33.4554C-3.4641 29.3179 -2.72386 13.6794 10.0353 12.5Z" fill="#17FFE8"/>
<path d="M7.32528 22.6988C6.36579 12.6732 14.2486 4 24.32 4H29.4193C38.9332 4 46.1977 12.4979 44.7179 21.8959L44.4818 23.3952C43.9215 26.9534 41.8202 30.0832 38.739 31.9488C37.3265 32.8041 36.1019 33.9367 35.1392 35.2784L34.8192 35.7245C26.7927 46.9108 9.18794 42.1618 7.87629 28.4563L7.32528 22.6988Z" fill="#F53C95"/>
<path d="M4.89844 40L6.14941 32.9248H9.38965L12.6504 14.4268H9.41016L10.6611 7.35156H27.9492C36.1113 7.35156 40.1924 9.86719 40.1924 14.8984C40.1924 16.8398 39.6523 18.5488 38.5723 20.0254C37.5059 21.502 36.0498 22.6094 34.2041 23.3477C35.4893 23.8945 36.4736 24.6875 37.1572 25.7266C37.8545 26.752 38.2031 27.9893 38.2031 29.4385C38.2031 31.5576 37.6289 33.4102 36.4805 34.9961C35.3457 36.582 33.7256 37.8125 31.6201 38.6875C29.5146 39.5625 27.0264 40 24.1553 40H4.89844ZM25.7344 14.2217H23.1914L22.084 20.4971H24.9141C26.2676 20.4971 27.3271 20.1758 28.0928 19.5332C28.8584 18.8906 29.2412 18.0088 29.2412 16.8877C29.2412 15.1104 28.0723 14.2217 25.7344 14.2217ZM19.8486 33.1299H23.1094C24.5312 33.1299 25.6387 32.7744 26.4316 32.0635C27.2246 31.3525 27.6211 30.3545 27.6211 29.0693C27.6211 27.1553 26.4316 26.1982 24.0527 26.1982H21.0791L19.8486 33.1299Z" fill="white"/>
</svg>
