<svg width="160" height="124" viewBox="0 0 160 124" fill="none" xmlns="http://www.w3.org/2000/svg">
<path d="M0.875 111V106.283H3.0625V93.9512H0.875V89.2344H12.6738C15.5905 89.2344 17.7917 89.7357 19.2773 90.7383C20.7721 91.7409 21.5195 93.2357 21.5195 95.2227C21.5195 96.2708 21.2598 97.2005 20.7402 98.0117C20.2298 98.8229 19.487 99.4427 18.5117 99.8711C19.5599 100.29 20.3848 100.924 20.9863 101.771C21.5879 102.61 21.8887 103.617 21.8887 104.793C21.8887 106.789 21.1595 108.325 19.7012 109.4C18.2428 110.467 16.1556 111 13.4395 111H0.875ZM11.8398 93.8145H10.0078V97.998H11.8398C13.5352 97.998 14.3828 97.3008 14.3828 95.9062C14.3828 94.5117 13.5352 93.8145 11.8398 93.8145ZM10.0078 106.42H12.127C13.877 106.42 14.752 105.65 14.752 104.109C14.752 102.569 13.877 101.799 12.127 101.799H10.0078V106.42ZM30.0152 111.246C29.0764 111.246 28.2379 111.059 27.4996 110.686C26.7704 110.303 26.1962 109.779 25.777 109.113C25.3668 108.448 25.1617 107.682 25.1617 106.816C25.1617 105.467 25.6812 104.392 26.7203 103.59C27.7594 102.788 29.1448 102.387 30.8766 102.387C31.4781 102.387 32.0523 102.423 32.5992 102.496C33.1461 102.569 33.7021 102.692 34.2672 102.865V102.564C34.2672 101.735 34.012 101.133 33.5016 100.76C33.0003 100.386 32.1936 100.199 31.0816 100.199C30.2796 100.199 29.4684 100.304 28.648 100.514C27.8277 100.723 27.0803 101.015 26.4059 101.389L26.0367 101.225V97.2324C26.9937 96.8587 28.0784 96.5762 29.2906 96.3848C30.512 96.1934 31.7379 96.0977 32.9684 96.0977C35.6936 96.0977 37.6852 96.5534 38.943 97.4648C40.2008 98.3763 40.8297 99.8392 40.8297 101.854V106.898H42.607V111H35.1422L34.4723 108.854C34.0439 109.601 33.4332 110.189 32.6402 110.617C31.8564 111.036 30.9814 111.246 30.0152 111.246ZM32.8727 107.746C33.1187 107.746 33.374 107.705 33.6383 107.623C33.9117 107.532 34.1214 107.413 34.2672 107.268V104.984C34.0393 104.884 33.8069 104.816 33.5699 104.779C33.3421 104.743 33.1279 104.725 32.9273 104.725C32.4625 104.725 32.0706 104.861 31.7516 105.135C31.4417 105.408 31.2867 105.773 31.2867 106.229C31.2867 106.693 31.4326 107.062 31.7242 107.336C32.0159 107.609 32.3987 107.746 32.8727 107.746ZM45.8254 111V106.898H47.8078V100.623H45.8254V96.8906L54.2336 96.084V97.9434C54.7987 97.3509 55.5051 96.8952 56.3527 96.5762C57.2004 96.248 58.1118 96.084 59.0871 96.084C60.7368 96.084 61.9445 96.5534 62.7102 97.4922C63.4849 98.4219 63.8723 99.8255 63.8723 101.703V106.898H65.7863V111H57.3098V101.703C57.3098 101.174 57.1958 100.792 56.968 100.555C56.7401 100.309 56.4393 100.186 56.0656 100.186C55.7557 100.186 55.4458 100.277 55.1359 100.459C54.8352 100.641 54.5799 100.892 54.3703 101.211V106.898H55.6008V111H45.8254ZM68.8543 111V106.898H70.8367V100.623H68.8543V96.8906L77.2625 96.084V97.9434C77.8276 97.3509 78.534 96.8952 79.3816 96.5762C80.2293 96.248 81.1408 96.084 82.116 96.084C83.7658 96.084 84.9734 96.5534 85.7391 97.4922C86.5138 98.4219 86.9012 99.8255 86.9012 101.703V106.898H88.8152V111H80.3387V101.703C80.3387 101.174 80.2247 100.792 79.9969 100.555C79.769 100.309 79.4682 100.186 79.0945 100.186C78.7846 100.186 78.4747 100.277 78.1648 100.459C77.8641 100.641 77.6089 100.892 77.3992 101.211V106.898H78.6297V111H68.8543ZM100.25 111.246C97.5434 111.246 95.4197 110.567 93.8793 109.209C92.348 107.842 91.5824 105.951 91.5824 103.535C91.5824 102.013 91.9151 100.696 92.5805 99.584C93.2549 98.472 94.1937 97.6152 95.3969 97.0137C96.6 96.403 97.9991 96.0977 99.5941 96.0977C101.153 96.0977 102.488 96.3848 103.6 96.959C104.712 97.5241 105.56 98.3171 106.143 99.3379C106.735 100.35 107.032 101.521 107.032 102.852C107.032 103.161 107.018 103.462 106.991 103.754C106.963 104.036 106.931 104.296 106.895 104.533H98.1039C98.2589 105.463 98.6781 106.133 99.3617 106.543C100.054 106.944 100.898 107.145 101.891 107.145C102.73 107.145 103.527 106.999 104.284 106.707C105.049 106.406 105.696 106.033 106.225 105.586L106.594 105.75V109.674C106.157 109.975 105.592 110.243 104.899 110.48C104.206 110.717 103.454 110.904 102.643 111.041C101.841 111.178 101.043 111.246 100.25 111.246ZM99.9496 99.4609C99.3389 99.4609 98.8786 99.6979 98.5687 100.172C98.2589 100.646 98.0857 101.307 98.0492 102.154H101.85C101.814 101.307 101.64 100.646 101.33 100.172C101.03 99.6979 100.569 99.4609 99.9496 99.4609ZM110.182 111V106.898H112.164V100.623H110.182V96.8906L118.59 96.084V98.8867C119.128 97.8932 119.87 97.1686 120.818 96.7129C121.766 96.2572 122.673 96.0293 123.539 96.0293V101.908C122.719 101.626 121.967 101.484 121.283 101.484C120.827 101.484 120.349 101.566 119.848 101.73C119.346 101.885 118.973 102.1 118.727 102.373V106.898H121.871V111H110.182ZM126.375 111V106.898H128.494V100.445H126.238V96.7129L128.494 96.4941V95.4824C128.494 93.6413 129.086 92.2194 130.271 91.2168C131.465 90.2051 133.174 89.6992 135.398 89.6992C136.027 89.6992 136.606 89.7311 137.134 89.7949C137.663 89.8587 138.187 89.9544 138.707 90.082V93.9922L138.338 94.1562C138.137 94.0924 137.918 94.0332 137.681 93.9785C137.453 93.9147 137.166 93.8828 136.82 93.8828C136.209 93.8828 135.763 94.0378 135.48 94.3477C135.198 94.6484 135.056 95.0723 135.056 95.6191V96.3438H138.365V100.445H135.056V106.898H138.365V111H126.375ZM144.099 116.441V112.34H147.476L147.968 111.369L141.46 100.445H140.161V96.3438H150.046V100.445H148.405L151.03 105.203L153.396 100.445H151.755V96.3438H158.687V100.445H157.388L151.468 112.34H153.45V116.441H144.099Z" fill="#1A1A1A"/>
<path d="M53.2472 18.695C57.719 18.2816 64.2104 12.823 67.4535 9.71653L69.4252 7.82786C89.725 -11.6172 122.73 8.06119 115.277 35.1654L112.615 47.1247C108.621 61.6504 93.0528 68.1031 78.7948 63.2386L50.9524 53.7394C30.6717 46.8201 31.9096 20.6673 53.2472 18.695Z" fill="#17FFE8"/>
<path d="M48.7145 35.7506C47.1099 18.9845 60.2925 4.47998 77.1353 4.47998H85.6631C101.573 4.47998 113.722 18.6913 111.247 34.408L110.853 36.9153C109.916 42.8657 106.402 48.0998 101.249 51.2198C98.8866 52.6501 96.8387 54.5443 95.2288 56.788L94.6935 57.5339C81.2706 76.2413 51.8295 68.2993 49.6359 45.3792L48.7145 35.7506Z" fill="#F53C95"/>
<path d="M44.6582 64.6841L46.7503 52.852H52.169L57.6221 21.9171H52.2033L54.2954 10.085H83.2069C96.8567 10.085 103.682 14.2919 103.682 22.7059C103.682 25.9526 102.778 28.8106 100.972 31.2799C99.1888 33.7492 96.7538 35.6012 93.6671 36.8358C95.8163 37.7504 97.4625 39.0765 98.6057 40.8141C99.7718 42.5289 100.355 44.5981 100.355 47.0217C100.355 50.5656 99.3946 53.6637 97.474 56.3159C95.5763 58.9681 92.8669 61.0259 89.3458 62.4892C85.8248 63.9525 81.6635 64.6841 76.8621 64.6841H44.6582ZM79.5029 21.5741H75.2502L73.3982 32.0687H78.1311C80.3946 32.0687 82.1665 31.5314 83.4469 30.4568C84.7273 29.3822 85.3675 27.9074 85.3675 26.0326C85.3675 23.0603 83.4126 21.5741 79.5029 21.5741ZM69.66 53.195H75.113C77.4909 53.195 79.3428 52.6005 80.669 51.4116C81.9951 50.2227 82.6581 48.5536 82.6581 46.4044C82.6581 43.2034 80.669 41.6029 76.6906 41.6029H71.7177L69.66 53.195Z" fill="white"/>
</svg>
