<svg width="200" height="126" viewBox="0 0 200 126" fill="none" xmlns="http://www.w3.org/2000/svg">
<path d="M0.875 113V108.283H3.0625V95.9512H0.875V91.2344H12.6738C15.5905 91.2344 17.7917 91.7357 19.2773 92.7383C20.7721 93.7409 21.5195 95.2357 21.5195 97.2227C21.5195 98.2708 21.2598 99.2005 20.7402 100.012C20.2298 100.823 19.487 101.443 18.5117 101.871C19.5599 102.29 20.3848 102.924 20.9863 103.771C21.5879 104.61 21.8887 105.617 21.8887 106.793C21.8887 108.789 21.1595 110.325 19.7012 111.4C18.2428 112.467 16.1556 113 13.4395 113H0.875ZM11.8398 95.8145H10.0078V99.998H11.8398C13.5352 99.998 14.3828 99.3008 14.3828 97.9062C14.3828 96.5117 13.5352 95.8145 11.8398 95.8145ZM10.0078 108.42H12.127C13.877 108.42 14.752 107.65 14.752 106.109C14.752 104.569 13.877 103.799 12.127 103.799H10.0078V108.42ZM25.2848 113V108.898H27.2672V102.623H25.2848V98.8906L33.693 98.084V100.887C34.2307 99.8932 34.9736 99.1686 35.9215 98.7129C36.8694 98.2572 37.7763 98.0293 38.6422 98.0293V103.908C37.8219 103.626 37.0699 103.484 36.3863 103.484C35.9306 103.484 35.4521 103.566 34.9508 103.73C34.4495 103.885 34.0758 104.1 33.8297 104.373V108.898H36.9742V113H25.2848ZM46.0715 113.246C45.1327 113.246 44.2941 113.059 43.5559 112.686C42.8267 112.303 42.2525 111.779 41.8332 111.113C41.423 110.448 41.218 109.682 41.218 108.816C41.218 107.467 41.7375 106.392 42.7766 105.59C43.8156 104.788 45.201 104.387 46.9328 104.387C47.5344 104.387 48.1086 104.423 48.6555 104.496C49.2023 104.569 49.7583 104.692 50.3234 104.865V104.564C50.3234 103.735 50.0682 103.133 49.5578 102.76C49.0565 102.386 48.2499 102.199 47.1379 102.199C46.3358 102.199 45.5246 102.304 44.7043 102.514C43.884 102.723 43.1366 103.015 42.4621 103.389L42.093 103.225V99.2324C43.05 98.8587 44.1346 98.5762 45.3469 98.3848C46.5682 98.1934 47.7941 98.0977 49.0246 98.0977C51.7499 98.0977 53.7414 98.5534 54.9992 99.4648C56.257 100.376 56.8859 101.839 56.8859 103.854V108.898H58.6633V113H51.1984L50.5285 110.854C50.1001 111.601 49.4895 112.189 48.6965 112.617C47.9126 113.036 47.0376 113.246 46.0715 113.246ZM48.9289 109.746C49.175 109.746 49.4302 109.705 49.6945 109.623C49.968 109.532 50.1776 109.413 50.3234 109.268V106.984C50.0956 106.884 49.8632 106.816 49.6262 106.779C49.3983 106.743 49.1841 106.725 48.9836 106.725C48.5187 106.725 48.1268 106.861 47.8078 107.135C47.4979 107.408 47.343 107.773 47.343 108.229C47.343 108.693 47.4888 109.062 47.7805 109.336C48.0721 109.609 48.4549 109.746 48.9289 109.746ZM61.8816 113V108.898H63.8641V102.623H61.8816V98.8906L70.2898 98.084V99.9434C70.8549 99.3509 71.5613 98.8952 72.409 98.5762C73.2566 98.248 74.1681 98.084 75.1434 98.084C76.7931 98.084 78.0008 98.5534 78.7664 99.4922C79.5411 100.422 79.9285 101.826 79.9285 103.703V108.898H81.8426V113H73.366V103.703C73.366 103.174 73.2521 102.792 73.0242 102.555C72.7964 102.309 72.4956 102.186 72.1219 102.186C71.812 102.186 71.5021 102.277 71.1922 102.459C70.8914 102.641 70.6362 102.892 70.4266 103.211V108.898H71.657V113H61.8816ZM91.0629 113.246C89.7413 113.246 88.602 112.932 87.6449 112.303C86.6879 111.674 85.9542 110.79 85.4437 109.65C84.9333 108.502 84.6781 107.167 84.6781 105.645C84.6781 104.113 84.9288 102.783 85.4301 101.652C85.9314 100.522 86.6332 99.6471 87.5355 99.0273C88.447 98.4076 89.5089 98.0977 90.7211 98.0977C92.2888 98.0977 93.7745 98.6673 95.1781 99.8066V96.293H92.7855V92.5605L101.741 91.6719V108.898H103.655V113H95.3148V111.469C94.7497 112.007 94.0935 112.439 93.3461 112.768C92.5987 113.087 91.8376 113.246 91.0629 113.246ZM93.182 109.158C93.5284 109.158 93.8839 109.104 94.2484 108.994C94.6221 108.885 94.932 108.743 95.1781 108.57V102.814C94.932 102.632 94.6221 102.482 94.2484 102.363C93.8839 102.245 93.5284 102.186 93.182 102.186C92.544 102.186 92.0427 102.491 91.6781 103.102C91.3227 103.712 91.1449 104.564 91.1449 105.658C91.1449 106.752 91.3227 107.609 91.6781 108.229C92.0427 108.848 92.544 109.158 93.182 109.158ZM162.315 113.369C161.158 113.369 160.228 113.055 159.526 112.426C158.824 111.797 158.473 110.949 158.473 109.883C158.473 108.826 158.824 107.992 159.526 107.381C160.228 106.77 161.158 106.465 162.315 106.465C163.482 106.465 164.412 106.77 165.104 107.381C165.806 107.992 166.157 108.826 166.157 109.883C166.157 110.949 165.806 111.797 165.104 112.426C164.402 113.055 163.473 113.369 162.315 113.369ZM168.856 113V108.898H170.975V102.623H168.856V98.8906L177.538 98.084V108.898H179.657V113H168.856ZM174.256 97.168C173.062 97.168 172.105 96.8809 171.385 96.3066C170.674 95.7324 170.319 94.9714 170.319 94.0234C170.319 93.0755 170.674 92.3281 171.385 91.7812C172.096 91.2253 173.058 90.9473 174.27 90.9473C175.51 90.9473 176.471 91.2161 177.155 91.7539C177.847 92.2917 178.194 93.0482 178.194 94.0234C178.194 94.9896 177.838 95.7552 177.127 96.3203C176.426 96.8854 175.468 97.168 174.256 97.168ZM190.545 113.246C188.831 113.246 187.35 112.941 186.102 112.33C184.862 111.719 183.905 110.849 183.23 109.719C182.565 108.589 182.232 107.244 182.232 105.686C182.232 104.118 182.565 102.769 183.23 101.639C183.905 100.508 184.862 99.638 186.102 99.0273C187.35 98.4076 188.831 98.0977 190.545 98.0977C192.258 98.0977 193.735 98.4076 194.975 99.0273C196.223 99.638 197.18 100.508 197.846 101.639C198.52 102.769 198.857 104.118 198.857 105.686C198.857 107.244 198.52 108.589 197.846 109.719C197.18 110.849 196.223 111.719 194.975 112.33C193.735 112.941 192.258 113.246 190.545 113.246ZM190.545 109.268C191.775 109.268 192.391 108.069 192.391 105.672C192.391 103.275 191.775 102.076 190.545 102.076C189.314 102.076 188.699 103.275 188.699 105.672C188.699 108.069 189.314 109.268 190.545 109.268Z" fill="#1A1A1A"/>
<path d="M106.6 113V108.898H108.719V102.623H106.6V98.8906L115.281 98.084V108.898H117.4V113H106.6ZM112 97.168C110.806 97.168 109.849 96.8809 109.129 96.3066C108.418 95.7324 108.062 94.9714 108.062 94.0234C108.062 93.0755 108.418 92.3281 109.129 91.7812C109.84 91.2253 110.801 90.9473 112.014 90.9473C113.253 90.9473 114.215 91.2161 114.898 91.7539C115.591 92.2917 115.938 93.0482 115.938 94.0234C115.938 94.9896 115.582 95.7552 114.871 96.3203C114.169 96.8854 113.212 97.168 112 97.168ZM131.884 109.24C133.662 109.24 135.002 109.6 135.904 110.32C136.815 111.04 137.271 112.066 137.271 113.396C137.271 114.554 136.875 115.529 136.082 116.322C135.298 117.115 134.199 117.712 132.787 118.113C131.374 118.514 129.724 118.715 127.838 118.715C125.969 118.715 124.447 118.546 123.271 118.209C122.104 117.881 121.248 117.439 120.701 116.883C120.163 116.336 119.894 115.739 119.894 115.092C119.894 114.6 120.076 114.153 120.441 113.752C120.815 113.351 121.289 113.059 121.863 112.877C121.207 112.348 120.879 111.656 120.879 110.799C120.879 110.042 121.147 109.409 121.685 108.898C122.232 108.379 123.007 107.996 124.009 107.75C122.788 107.395 121.772 106.839 120.961 106.082C120.158 105.326 119.757 104.364 119.757 103.197C119.757 101.666 120.464 100.436 121.877 99.5059C123.289 98.5671 125.354 98.0977 128.07 98.0977C129.501 98.0977 130.782 98.2799 131.912 98.6445L137.599 98.084V102.322H135.877C135.94 102.605 135.972 102.896 135.972 103.197C135.972 104.729 135.243 105.959 133.785 106.889C132.326 107.809 130.248 108.27 127.55 108.27C126.894 108.27 126.566 108.429 126.566 108.748C126.566 109.076 126.894 109.24 127.55 109.24H131.884ZM128.07 100.996C127.514 100.987 127.045 101.178 126.662 101.57C126.279 101.953 126.088 102.486 126.088 103.17C126.088 103.863 126.274 104.405 126.648 104.797C127.031 105.189 127.505 105.38 128.07 105.371C128.635 105.362 129.104 105.166 129.478 104.783C129.861 104.391 130.052 103.854 130.052 103.17C130.052 102.495 129.861 101.967 129.478 101.584C129.104 101.201 128.635 101.005 128.07 100.996ZM124.05 114.326C124.05 114.873 124.333 115.301 124.898 115.611C125.463 115.93 126.306 116.09 127.427 116.09C128.649 116.09 129.528 115.949 130.066 115.666C130.604 115.383 130.873 115.023 130.873 114.586C130.873 114.13 130.545 113.902 129.888 113.902H125.691C125.135 113.902 124.62 113.866 124.146 113.793C124.082 113.966 124.05 114.144 124.05 114.326ZM147.845 113.246C146.131 113.246 144.65 112.941 143.402 112.33C142.162 111.719 141.205 110.849 140.53 109.719C139.865 108.589 139.532 107.244 139.532 105.686C139.532 104.118 139.865 102.769 140.53 101.639C141.205 100.508 142.162 99.638 143.402 99.0273C144.65 98.4076 146.131 98.0977 147.845 98.0977C149.558 98.0977 151.035 98.4076 152.275 99.0273C153.523 99.638 154.48 100.508 155.146 101.639C155.82 102.769 156.157 104.118 156.157 105.686C156.157 107.244 155.82 108.589 155.146 109.719C154.48 110.849 153.523 111.719 152.275 112.33C151.035 112.941 149.558 113.246 147.845 113.246ZM147.845 109.268C149.075 109.268 149.691 108.069 149.691 105.672C149.691 103.275 149.075 102.076 147.845 102.076C146.614 102.076 145.999 103.275 145.999 105.672C145.999 108.069 146.614 109.268 147.845 109.268Z" fill="black"/>
<path d="M75.2472 18.695C79.719 18.2816 86.2104 12.823 89.4535 9.71653L91.4252 7.82786C111.725 -11.6172 144.73 8.06119 137.277 35.1654L134.615 47.1247C130.621 61.6504 115.053 68.1031 100.795 63.2386L72.9524 53.7394C52.6717 46.8201 53.9096 20.6673 75.2472 18.695Z" fill="#17FFE8"/>
<path d="M70.7145 35.7506C69.1099 18.9845 82.2925 4.47998 99.1353 4.47998H107.663C123.573 4.47998 135.722 18.6913 133.247 34.408L132.853 36.9153C131.916 42.8657 128.402 48.0998 123.249 51.2198C120.887 52.6501 118.839 54.5443 117.229 56.788L116.694 57.5339C103.271 76.2413 73.8295 68.2993 71.6359 45.3792L70.7145 35.7506Z" fill="#F53C95"/>
<path d="M66.6587 64.6841L68.7507 52.852H74.1695L79.6226 21.9171H74.2038L76.2959 10.085H105.207C118.857 10.085 125.682 14.2919 125.682 22.7059C125.682 25.9526 124.779 28.8106 122.973 31.2799C121.189 33.7492 118.754 35.6012 115.668 36.8358C117.817 37.7504 119.463 39.0765 120.606 40.8141C121.772 42.5289 122.355 44.5981 122.355 47.0217C122.355 50.5656 121.395 53.6637 119.474 56.3159C117.577 58.9681 114.867 61.0259 111.346 62.4892C107.825 63.9525 103.664 64.6841 98.8626 64.6841H66.6587ZM101.503 21.5741H97.2507L95.3987 32.0687H100.132C102.395 32.0687 104.167 31.5314 105.447 30.4568C106.728 29.3822 107.368 27.9074 107.368 26.0326C107.368 23.0603 105.413 21.5741 101.503 21.5741ZM91.6604 53.195H97.1135C99.4914 53.195 101.343 52.6005 102.669 51.4116C103.996 50.2227 104.659 48.5536 104.659 46.4044C104.659 43.2034 102.669 41.6029 98.6911 41.6029H93.7182L91.6604 53.195Z" fill="white"/>
</svg>
